<svg width="40" height="40" xmlns="http://www.w3.org/2000/svg" fill="none">
    <g>
        <title>Layer 1</title>
        <rect stroke="white" fill-opacity="100" id="svg_2" height="38.37586" width="38.07761" y="2.34451" x="2.45193" fill="#77bc1f"/>
        <text stroke="null" font-style="normal" font-weight="normal" xml:space="preserve" text-anchor="start" font-family="'Montserrat'" font-size="24" id="svg_8" y="18.98855" x="1.23064" fill="#ffffff">S</text>
        <text stroke="null" font-style="normal" font-weight="normal" xml:space="preserve" text-anchor="start" font-family="'Montserrat'" font-size="24" id="svg_9" y="18.65776" x="12.75111" fill="#ffffff">P</text>
        <g>
            <path fill="#77bc1f" d="m334.37416,-324.04999c-10.8,25.8 -24.5,50.3 -41,72.8c-72.2,-72.2 -170.2,-112.8 -272.3,-112.8c-211.2,0 -385,174 -385,385.5c0,105.5 43.2,206.5 119.6,279.3l14.2,12.6c69.4,58.5 157.3,90.7 248,90.7c200.8,0 369.6,-157.4 383.9,-358c10.5,-98.2 -18.3,-222.4 -67.4,-370.1zm-524,627c-6.2,7.7 -15.7,12.2 -25.6,12.2c-18.1,0 -32.9,-14.9 -32.9,-33s14.9,-33 32.9,-33c7.5,0 14.9,2.6 20.7,7.4c14.1,11.4 16.3,32.3 4.9,46.4zm522.4,-115.4c-95,126.7 -297.9,84 -428,90.1c0,0 -23.1,1.4 -46.3,5.2c0,0 8.7,-3.7 20,-8c91.3,-31.8 134.5,-38 190,-66.5c104.5,-53.2 207.8,-169.6 229.3,-290.7c-39.8,116.5 -160.4,216.6 -270.3,257.3c-75.3,27.8 -211.3,54.8 -211.3,54.8l-5.5,-2.9c-92.6,-45.1 -95.4,-245.8 72.9,-310.6c73.7,-28.4 144.2,-12.8 223.8,-31.8c85,-20.2 183.3,-84 223.3,-167.2c44.8,133.1 98.7,341.5 2.1,470.3z" class="st0"/>
        </g>
        <g fill="#6db33f" stroke="null" id="svg_12"/>
        <g stroke="null">
            <title>spring-icon</title>
            <g stroke="null" id="svg_14">
                <g stroke="null" id="svg_15">
                    <path stroke="white" d="m37.91601,20.14022a9.08354,9.08354 0 0 1 -1.11612,1.95322a10.40143,10.40143 0 1 0 -14.53109,14.87451l0.38635,0.34342a10.39069,10.39069 0 0 0 17.06383,-7.21188c0.3005,-2.6186 -0.49367,-5.96698 -1.80297,-9.95927zm-14.14474,16.91359a0.88431,0.88431 0 1 1 -0.12878,-1.24491a0.90363,0.90363 0 0 1 0.12878,1.24491zm14.08035,-3.11227c-2.55421,3.41277 -8.04898,2.25371 -11.5476,2.42543c0,0 -0.62245,0.04293 -1.24491,0.12878c0,0 0.2361,-0.10732 0.5366,-0.21464c2.46835,-0.85856 3.62741,-1.03027 5.12988,-1.80297c2.81178,-1.43808 5.62355,-4.59328 6.18162,-7.8558c-1.0732,3.13374 -4.33572,5.83819 -7.29774,6.93285c-2.03907,0.75124 -5.70941,1.48101 -5.70941,1.48101l-0.15025,-0.08586c-2.48982,-1.22344 -2.57567,-6.63236 1.97468,-8.37094c1.99615,-0.7727 3.88497,-0.34342 6.05283,-0.85856c2.29664,-0.5366 4.95817,-2.25371 6.03137,-4.50743c1.20198,3.62741 2.66153,9.25096 0.04293,12.72812z" fill="#77bc1f" fill-opacity="100" class="cls-1"/>
                </g>
            </g>
        </g>
    </g>
</svg>