<svg width="40" height="40" xmlns="http://www.w3.org/2000/svg" fill="none">
    <g>
        <rect stroke="white" fill-opacity="100" id="svg_2" height="38.37586" width="38.07761" y="2.34451" x="2.45193" fill="#77bc1f"/>
        <text stroke="null" font-style="normal" font-weight="normal" xml:space="preserve" text-anchor="start" font-family="'Montserrat'" font-size="8" id="svg_8" y="8.3" x="2.3" fill="#ffffff">Profiles</text>
        <text stroke="null" font-style="normal" font-weight="normal" xml:space="preserve" text-anchor="start" font-family="'Montserrat'" font-size="8" id="svg_9" y="15" x="1.9" fill="#ffffff">Combiner</text>

        <g stroke="null">
            <title>pligin-icon</title>
            <g stroke="null" id="svg_14">
                <g stroke="null" id="svg_15">
                    <path stroke="white" d="m37.91601,20.14022a9.08354,9.08354 0 0 1 -1.11612,1.95322a10.40143,10.40143 0 1 0 -14.53109,14.87451l0.38635,0.34342a10.39069,10.39069 0 0 0 17.06383,-7.21188c0.3005,-2.6186 -0.49367,-5.96698 -1.80297,-9.95927zm-14.14474,16.91359a0.88431,0.88431 0 1 1 -0.12878,-1.24491a0.90363,0.90363 0 0 1 0.12878,1.24491zm14.08035,-3.11227c-2.55421,3.41277 -8.04898,2.25371 -11.5476,2.42543c0,0 -0.62245,0.04293 -1.24491,0.12878c0,0 0.2361,-0.10732 0.5366,-0.21464c2.46835,-0.85856 3.62741,-1.03027 5.12988,-1.80297c2.81178,-1.43808 5.62355,-4.59328 6.18162,-7.8558c-1.0732,3.13374 -4.33572,5.83819 -7.29774,6.93285c-2.03907,0.75124 -5.70941,1.48101 -5.70941,1.48101l-0.15025,-0.08586c-2.48982,-1.22344 -2.57567,-6.63236 1.97468,-8.37094c1.99615,-0.7727 3.88497,-0.34342 6.05283,-0.85856c2.29664,-0.5366 4.95817,-2.25371 6.03137,-4.50743c1.20198,3.62741 2.66153,9.25096 0.04293,12.72812z" fill="#77bc1f" fill-opacity="100" class="cls-1"/>
                </g>
            </g>
        </g>
    </g>
</svg>