<svg version="1.1" xmlns="http://www.w3.org/2000/svg" width="40" height="40"
     viewBox="1077.5,627,40,40">
    <g id="document" fill-opacity="0" fill="#a0da86" fill-rule="nonzero" stroke-opacity="0" stroke="#000000"
       stroke-width="0" stroke-linecap="butt" stroke-linejoin="miter" stroke-miterlimit="10" stroke-dasharray=""
       stroke-dashoffset="0" font-family="none" font-size="none"
       style="mix-blend-mode: normal">
        <rect x="18856.25" y="7837.5" transform="scale(0.05714,0.08)" width="700" height="500" id="Shape 1 1"
              vector-effect="non-scaling-stroke"/>
    </g>
    <g fill="none" fill-rule="nonzero" stroke-opacity="0" stroke="#000000" stroke-width="1" stroke-linecap="round"
       stroke-linejoin="round" stroke-miterlimit="10" stroke-dasharray="" stroke-dashoffset="0" font-family="none"
       font-size="none" style="mix-blend-mode: normal">
        <g id="stage">
            <g id="layer1 1">
                <path d="M1087.88452,630.34552l-9.61548,16.65448l9.61548,16.65448h19.23096l9.61548,-16.65448l-9.61548,-16.65448z"
                      id="Path 1" fill="#32683d"/>
                <path d="M1105.77149,644.94445c0.96296,0 1.16611,-0.59159 0.40629,-1.18318l-7.97297,-6.20772c-0.75982,-0.59159 -2.27945,-0.59159 -3.03926,0l-7.97297,6.20772c-0.75982,0.59159 -0.55667,1.18318 0.40629,1.18318z"
                      id="Path 1" fill-opacity="0.69" fill="#000000"/>
                <path d="M1088.00052,655.9346c-0.46296,0 -0.92593,-0.46296 -0.92593,-0.92593v-7.96077c0,-0.46296 0.46296,-0.92593 0.92593,-0.92593h2.50932c0.46296,0 0.92593,0.46296 0.92593,0.92593v7.96077c0,0.46296 -0.46296,0.92593 -0.92593,0.92593z"
                      id="Path 1" fill-opacity="0.69" fill="#000000"/>
                <path d="M1095.43098,655.9346c-0.46296,0 -0.92593,-0.46296 -0.92593,-0.92593v-7.96077c0,-0.46296 0.46296,-0.92593 0.92593,-0.92593h2.50932c0.46296,0 0.92593,0.46296 0.92593,0.92593v7.96077c0,0.46296 -0.46296,0.92593 -0.92593,0.92593z"
                      id="Path 1" fill-opacity="0.69" fill="#000000"/>
                <path d="M1102.86052,655.9346c-0.46296,0 -0.92593,-0.46296 -0.92593,-0.92593v-7.96077c0,-0.46296 0.46296,-0.92593 0.92593,-0.92593h2.50932c0.46296,0 0.92593,0.46296 0.92593,0.92593v7.96077c0,0.46296 -0.46296,0.92593 -0.92593,0.92593z"
                      id="Path 1" fill-opacity="0.69" fill="#000000"/>
                <path d="M1088.81593,655.56423c-0.46296,0 -0.92593,-0.46296 -0.92593,-0.92593v-7.96077c0,-0.46296 0.46296,-0.92593 0.92593,-0.92593h2.50932c0.46296,0 0.92593,0.46296 0.92593,0.92593v7.96077c0,0.46296 -0.46296,0.92593 -0.92593,0.92593z"
                      id="Path 1" fill="#aff3a4"/>
                <path d="M1096.24535,655.56423c-0.46296,0 -0.92593,-0.46296 -0.92593,-0.92593v-7.96077c0,-0.46296 0.46296,-0.92593 0.92593,-0.92593h2.50932c0.46296,0 0.92593,0.46296 0.92593,0.92593v7.96077c0,0.46296 -0.46296,0.92593 -0.92593,0.92593z"
                      id="Path 1" fill="#aff3a4"/>
                <path d="M1103.67593,655.56423c-0.46296,0 -0.92593,-0.46296 -0.92593,-0.92593v-7.96077c0,-0.46296 0.46296,-0.92593 0.92593,-0.92593h2.50932c0.46296,0 0.92593,0.46296 0.92593,0.92593v7.96077c0,0.46296 -0.46296,0.92593 -0.92593,0.92593z"
                      id="Path 1" fill="#aff3a4"/>
                <path d="" id="Path 1" fill="#ffffff"/>
                <path d="M1106.99371,644.57408c0.75926,0 0.91943,-0.46645 0.32035,-0.93289l-8.61589,-6.7083c-0.59909,-0.46645 -1.79726,-0.46645 -2.39634,0l-8.61589,6.7083c-0.59909,0.46645 -0.43891,0.93289 0.32035,0.93289z"
                      id="Path 1" fill="#aff3a4"/>
            </g>
        </g>
    </g>
</svg>